inDegrees=yes
name=ik_S47_A06_T01
DataType=double
version=3
OpenSimVersion=4.3-2021-08-27-4bc7ad9
endheader
time	pelvis_tilt	pelvis_list	pelvis_rotation	pelvis_tx	pelvis_ty	pelvis_tz	hip_flexion_r	hip_adduction_r	hip_rotation_r	knee_angle_r	knee_angle_r_beta	ankle_angle_r	subtalar_angle_r	mtp_angle_r	hip_flexion_l	hip_adduction_l	hip_rotation_l	knee_angle_l	knee_angle_l_beta	ankle_angle_l	subtalar_angle_l	mtp_angle_l	lumbar_extension	lumbar_bending	lumbar_rotation	arm_flex_r	arm_add_r	arm_rot_r	elbow_flex_r	pro_sup_r	wrist_flex_r	wrist_dev_r	arm_flex_l	arm_add_l	arm_rot_l	elbow_flex_l	pro_sup_l	wrist_flex_l	wrist_dev_l
16.45999999999974	-16.54502395960112	-3.408956795525731	26.97071944102841	0	0.9399999999999999	0	38.95927334877438	-10.25482349151774	-9.914732015273051	48.3121604882928	0.8432062692726208	0	0	0	38.95927334877438	-10.25482349151774	-9.914732015273051	48.3121604882928	0.8432062692726208	0	0	0	-16.20156834587523	4.892925198205445	-4.011396916487444	52.36242738001783	-0.755902020210187	23.64913254327478	35.52392596498294	111.020833373692	0	0	94.07830510034795	17.04024278147784	20.8368487977535	20.79097247510236	65.13245590499773	0	0
16.47999999999974	-16.47622773177538	-3.424506120575007	27.08938066728151	0	0.9399999999999999	0	38.96075192343233	-10.25460769300219	-9.914778380827984	48.31326436118866	0.843225535489177	0	0	0	38.96075192343233	-10.25460769300219	-9.914778380827984	48.31326436118866	0.843225535489177	0	0	0	-16.14749615513327	4.8526497122491	-4.028550042296976	52.32582187698053	-0.7591362647596577	23.57223737458126	35.46046970158749	110.9616202841997	0	0	93.742901882509	16.82506355526779	20.61277580648338	21.35313651367796	65.59895349866767	0	0
16.49999999999974	-16.42429212422756	-3.428657894282699	27.1767646013101	0	0.9399999999999999	0	38.96275389116892	-10.25431762234609	-9.914840867820963	48.31476824303738	0.8432517831789981	0	0	0	38.96275389116892	-10.25431762234609	-9.914840867820963	48.31476824303738	0.8432517831789981	0	0	0	-16.1063402305895	4.843507830749978	-4.083898554432967	52.32704363945445	-0.745229278495821	23.57524662782724	35.38948509335958	110.9333041929976	0	0	93.29938968433729	16.59840983588974	20.84121393723356	22.08281804570544	65.43818019962062	0	0
16.51999999999974	-16.34687218985098	-3.442675211770795	27.3002959941002	0	0.9399999999999999	0	38.96531361216942	-10.25394807974738	-9.91492058472978	48.31669631719077	0.8432854344211974	0	0	0	38.96531361216942	-10.25394807974738	-9.91492058472978	48.31669631719077	0.8432854344211974	0	0	0	-16.04766002610099	4.816644851274695	-4.14917041401729	52.29554839467827	-0.736675454052598	23.53903559908082	35.30863674941398	110.9071218557502	0	0	92.76277075743424	16.40751552869174	21.25148556129008	22.78193537890125	64.97911944371788	0	0
16.53999999999974	-16.27672283410011	-3.446196146537086	27.38512395042007	0	0.9399999999999999	0	38.96719234215611	-10.25367559935242	-9.914979279420228	48.31810436228787	0.8433100094441583	0	0	0	38.96719234215611	-10.25367559935242	-9.914979279420228	48.31810436228787	0.8433100094441583	0	0	0	-15.98798951008503	4.78947970210408	-4.174142561180398	52.22649727639894	-0.7323450273490981	23.49082273978175	35.22877575896918	110.8781350929889	0	0	92.35723483776798	16.27128850349641	21.37552187357605	23.20066497488238	64.8105071483489	0	0
16.55999999999974	-16.2324868518226	-3.44552959032228	27.43682116045524	0	0.9399999999999999	0	38.96822410743552	-10.2535259510422	-9.915011517057453	48.31887729897769	0.8433234997343052	0	0	0	38.96822410743552	-10.2535259510422	-9.915011517057453	48.31887729897769	0.8433234997343052	0	0	0	-15.94848848554553	4.772061513046808	-4.181319372871928	52.21308590857493	-0.7275317806498471	23.45916784594151	35.17944854366756	110.8598017556613	0	0	92.15980917639962	16.17000877941851	21.29162858133411	23.34483270223756	64.84016958926611	0	0
16.57999999999974	-16.13351786443166	-3.438476849012404	27.51222303320619	0	0.9399999999999999	0	38.96948907555898	-10.2533432325701	-9.915050938114932	48.31982814604243	0.8433400951462677	0	0	0	38.96948907555898	-10.2533432325701	-9.915050938114932	48.31982814604243	0.8433400951462677	0	0	0	-15.85672077859741	4.731619219186418	-4.176603488609559	52.03382466951967	-0.741308757529524	23.35208548316961	35.14330474565258	110.8661702247457	0	0	91.8804685687908	16.1684234527799	21.29114426955393	23.46549713566102	64.90325678985062	0	0
16.59999999999973	-16.10253167633087	-3.444608163377418	27.52772899085498	0	0.9399999999999999	0	38.96994819260701	-10.25327836757783	-9.915065039821345	48.32018033441347	0.8433462419929297	-1.812627118693278e-35	0	0	38.96994819260701	-10.25327836757783	-9.915065039821345	48.32018033441347	0.8433462419929297	-1.812627118693278e-35	0	0	-15.83217196127951	4.714264262305018	-4.186047025684015	52.10111617336358	-0.7287766236130325	23.36019167520507	35.11499205835634	110.8680503103806	0	0	91.7833063803602	16.1610971210505	21.25763524283107	23.49246055436597	64.88213777066626	0	0
16.61999999999973	-16.07704233670775	-3.455334082074867	27.53789334689849	0	0.9399999999999999	0	38.97052602814399	-10.25319654055491	-9.91508281454233	48.320622700283	0.8433539627338514	0	0	0	38.97052602814399	-10.25319654055491	-9.91508281454233	48.320622700283	0.8433539627338514	0	0	0	-15.81431122792696	4.695759702860694	-4.197072888470256	52.1320013811361	-0.6899856836913016	23.33881340086581	35.05962593057286	110.8655405120367	0	0	91.68244774760102	16.17859563109941	21.10604446145264	23.52991524635788	64.82103221209127	0	0
16.63999999999973	-16.04725892815629	-3.431075216912253	27.54165531867223	0	0.9399999999999999	0	38.96733622542936	-10.25342604408198	-9.915009670777193	48.31808654961502	0.8433096985543685	0	0	0	38.96733622542936	-10.25342604408198	-9.915009670777193	48.31808654961502	0.8433096985543685	0	0	0	-15.77682688508419	4.703692053309513	-4.196513686055084	52.1211407041758	-0.691550972910435	23.35029912705914	34.9506662064973	110.8776799203128	0	0	91.61243654731584	16.18721611470745	21.06795068614139	23.51081701348968	64.64928111338625	0	0
16.65999999999973	-15.99599807405136	-3.428891117807418	27.54218779103878	0	0.9399999999999999	0	38.96796991490403	-10.25333628739459	-9.915029168871422	48.31857157327592	0.8433181638142013	0	0	0	38.96796991490403	-10.25333628739459	-9.915029168871422	48.31857157327592	0.8433181638142013	0	0	0	-15.73080199444044	4.688068181545962	-4.21709223011465	52.07475267603415	-0.6455219900518281	23.31285410762667	34.91203915847854	110.8710643809239	0	0	91.55836363938548	16.16193428237686	20.84528830837665	23.46841664171202	64.64484950346909	0	0
16.67999999999973	-15.98493973056484	-3.412908317788313	27.53231404212928	0	0.9399999999999999	0	38.97024356007711	-10.25300709771577	-9.915100153371892	48.32027553169425	0.8433479034989183	0	0	0	38.97024356007711	-10.25300709771577	-9.915100153371892	48.32027553169425	0.8433479034989183	0	0	0	-15.71469112827111	4.702253618993715	-4.232743494084721	52.09543719994253	-0.6084932754476565	23.3130221523232	34.82893285665113	110.9347829421567	0	0	91.75934639190426	16.16501422620521	20.62899669967782	23.14239599138143	64.79506910123627	0	0
16.69999999999973	-15.97189032977674	-3.401626856177908	27.50636847573551	0	0.9399999999999999	0	38.97125252528714	-10.25289782104359	-9.915126555309184	48.32107377402327	0.8433618354557885	0	0	0	38.97125252528714	-10.25289782104359	-9.915126555309184	48.32107377402327	0.8433618354557885	0	0	0	-15.69848400183155	4.708589566618868	-4.238284041512857	52.12504663090422	-0.5802604133219444	23.30101627812766	34.80465830137125	110.9454087004769	0	0	91.73445937029712	16.13701922549183	20.61246852795385	23.08899812071624	64.8197352414337	0	0
16.71999999999973	-15.94925056732585	-3.394244152791081	27.48738312715695	0	0.9399999999999999	0	38.97333535463025	-10.25266789694891	-9.915182566948996	48.32270679556181	0.8433903370583921	0	0	0	38.97333535463025	-10.25266789694891	-9.915182566948996	48.32270679556181	0.8433903370583921	0	0	0	-15.6754293920768	4.705091289348919	-4.238122970173325	52.1210963220015	-0.5415407852390479	23.25951386951716	34.74237708750241	110.9828897456762	0	0	91.68845713728103	16.11426928020931	20.58905031931863	22.97917287617356	65.07205417512749	0	0
16.73999999999973	-15.93630359512989	-3.374329285817122	27.47074697559608	0	0.9399999999999999	0	38.97519641519933	-10.25239841017538	-9.91524068797438	48.32409959497013	0.8434146459938869	0	0	0	38.97519641519933	-10.25239841017538	-9.91524068797438	48.32409959497013	0.8434146459938869	0	0	0	-15.65536128671991	4.717479584356099	-4.23831442586001	52.08314181280225	-0.5499434552633145	23.26944991888298	34.74419783778576	110.9998945407483	0	0	91.91942789523836	16.0979251282678	20.57260005148747	22.78179440626564	64.94576366029187	0	0
16.75999999999973	-15.93374705699366	-3.358807066483588	27.45693770505728	0	0.9399999999999999	0	38.97757087028835	-10.25210457180527	-9.915308210005339	48.32592955717458	0.8434465848595416	0	0	0	38.97757087028835	-10.25210457180527	-9.915308210005339	48.32592955717458	0.8434465848595416	0	0	0	-15.64663627042271	4.7320248618424	-4.241073584922057	52.08413548172506	-0.5475588668774044	23.26725212067283	34.72368452470177	111.0027912591181	0	0	91.92260264920888	16.06830340990382	20.52769121114807	22.70038333536233	65.08446417645581	0	0
16.77999999999973	-15.93538983344344	-3.340405857429316	27.42152598824528	0	0.9399999999999999	0	38.97946158596235	-10.25183122623001	-9.91536720921623	48.32734491849313	0.8434712875746557	0	0	0	38.97946158596235	-10.25183122623001	-9.91536720921623	48.32734491849313	0.8434712875746557	0	0	0	-15.63989350679673	4.742284470370826	-4.219559084776116	52.07101050256725	-0.5520654057457546	23.29333901824987	34.74132482744847	111.0082673099957	0	0	92.49545527945379	16.10055593371831	20.80832328444109	22.30413256229749	64.62698833094666	0	0
16.79999999999973	-15.95342333453917	-3.326436765158419	27.41675425218801	0	0.9399999999999999	0	38.98156227566909	-10.25152738134675	-9.915432787944166	48.32891593902266	0.8434987070555126	0	0	0	38.98156227566909	-10.25152738134675	-9.915432787944166	48.32891593902266	0.8434987070555126	0	0	0	-15.65019241303083	4.761805764854121	-4.214062768641665	52.07382960553788	-0.5687819179091801	23.34370005504236	34.75335908760968	111.0003263298037	0	0	92.76808630303465	16.10657813421936	20.92610760612286	22.11716717962238	64.68635697667388	0	0
16.81999999999973	-15.94878444628255	-3.30054524069177	27.42144179330736	0	0.9399999999999999	0	38.98199273512688	-10.2514672990012	-9.915445915976647	48.32924853026314	0.8435045118677222	0	0	0	38.98199273512688	-10.2514672990012	-9.915445915976647	48.32924853026314	0.8435045118677222	0	0	0	-15.63477297395938	4.781182273001733	-4.206154664870574	52.00542578697151	-0.6061925353588445	23.40450649597576	34.75289760097407	110.9894331778467	0	-1.077613842297402e-35	92.96768508604053	16.10245732801976	21.07001420465324	22.10013191678251	64.73969433640616	0	-1.077613842297402e-35
16.83999999999973	-15.97733778206637	-3.293456642520858	27.41488034911437	0	0.9399999999999999	0	38.98431778116743	-10.25113135700783	-9.915518461923583	48.33098744851786	0.84353486171669	0	0	0	38.98431778116743	-10.25113135700783	-9.915518461923583	48.33098744851786	0.84353486171669	0	0	0	-15.65691074050167	4.795198971854569	-4.188340990119052	52.04423300005684	-0.6329124144943523	23.46464150800188	34.81174027636523	110.9098683101585	0	0	93.28430422514289	16.17264836041235	21.22402543544231	21.86379280873973	64.70343144829582	0	0
16.85999999999973	-16.00074496557864	-3.276058455928327	27.40146264068035	0	0.9399999999999999	0	38.98699581310058	-10.25074411403501	-9.915602078944657	48.33298716169767	0.8435697632957733	0	0	0	38.98699581310058	-10.25074411403501	-9.915602078944657	48.33298716169767	0.8435697632957733	0	0	0	-15.66958269894942	4.815149406685487	-4.165755969792409	52.05051859503185	-0.6692207946822489	23.5186561369096	34.8270342122747	110.8781642900311	0	0	93.58380116756651	16.23958532419386	21.36642238903271	21.70583345038913	64.62335884220812	0	0
16.87999999999973	-16.0163677413497	-3.258888781511311	27.38862119261044	0	0.9399999999999999	0	38.98917741615735	-10.25042922704743	-9.915670125466114	48.33461767313339	0.843598221088818	0	0	0	38.98917741615735	-10.25042922704743	-9.915670125466114	48.33461767313339	0.843598221088818	0	0	0	-15.67510903683953	4.830147743470232	-4.139719940768267	52.04999143473204	-0.692883647396819	23.53585469284107	34.84906095588315	110.8652691611221	0	0	93.87040359137096	16.32974166241259	21.47314324382325	21.53855432745656	64.5652913515424	0	0
